<svg width="360" height="360" viewBox="0 0 360 360" fill="none" xmlns="http://www.w3.org/2000/svg">
<rect width="360" height="360" fill="#F5F5F5"/>
<path d="M302.96 134.938H240.744C239.608 126.888 237.288 119.739 233.784 113.489C230.28 107.144 225.782 101.746 220.29 97.2954C214.797 92.8447 208.453 89.4356 201.256 87.0682C194.153 84.7008 186.436 83.5171 178.102 83.5171C163.045 83.5171 149.93 87.2576 138.756 94.7386C127.581 102.125 118.917 112.92 112.761 127.125C106.606 141.235 103.528 158.375 103.528 178.545C103.528 199.284 106.606 216.708 112.761 230.818C119.011 244.928 127.723 255.581 138.898 262.778C150.072 269.975 162.998 273.574 177.676 273.574C185.915 273.574 193.538 272.485 200.545 270.307C207.648 268.129 213.945 264.956 219.438 260.79C224.93 256.528 229.475 251.367 233.074 245.307C236.767 239.246 239.324 232.333 240.744 224.568L302.96 224.852C301.35 238.205 297.326 251.083 290.886 263.489C284.542 275.799 275.972 286.831 265.176 296.585C254.475 306.244 241.691 313.915 226.824 319.597C212.051 325.184 195.337 327.977 176.682 327.977C150.735 327.977 127.534 322.106 107.08 310.364C86.7197 298.621 70.6212 281.623 58.7841 259.369C47.0417 237.116 41.1705 210.174 41.1705 178.545C41.1705 146.822 47.1364 119.833 59.0682 97.5796C71 75.3258 87.1932 58.375 107.648 46.7273C128.102 34.9848 151.114 29.1136 176.682 29.1136C193.538 29.1136 209.163 31.4811 223.557 36.2159C238.045 40.9508 250.877 47.8636 262.051 56.9545C273.225 65.9507 282.316 76.9829 289.324 90.0511C296.426 103.119 300.972 118.081 302.96 134.938Z" fill="black"/>
</svg>
